<svg viewBox="0 0 100 100"
     xmlns="http://www.w3.org/2000/svg"
     height="100%"
     width="100%"
     preserveAspectRatio="xMidYMid meet"
     focusable="false"
     fill="#ffffff">
<defs>
    <style type="text/css">
        .fil-pants0 {fill:none;stroke:none;}
        .fil-pants1 {fill-rule:nonzero;stroke:none;}
    </style>
</defs>
<g id="Outline">
    <g>
        <path class="fil-pants0"
              d="M0 0c0.182,0 0.365,0 0.547,0 0,0.182 0,0.365 0,0.547 -0.182,0 -0.365,0 -0.547,0 0,-0.182 0,-0.365 0,-0.547z">
        </path>
        <path class="fil-pants1"
              d="M0.136 0l0.275 0c0.005,0 0.009,0.004 0.009,0.009l0 0.031 0.016 0.498c0.001,0.005 -0.003,0.009 -0.008,0.009l-0.101 0c-0.005,0 -0.008,-0.003 -0.009,-0.007l-0.044 -0.276 -0.045 0.276c-0.001,0.004 -0.004,0.007 -0.009,0.007l-0.101 0c-0.005,0 -0.009,-0.004 -0.008,-0.009l0.016 -0.498 0 -0.031c0,-0.005 0.004,-0.009 0.009,-0.009zm0.164 0.052l0 0.095c0,0.004 -0.004,0.008 -0.009,0.008l-0.009 0 0 0.053 0.052 0.322 0.085 -0.001 -0.014 -0.408c-0.019,-0.002 -0.036,-0.01 -0.049,-0.023 -0.012,-0.012 -0.02,-0.028 -0.022,-0.046l-0.034 0zm-0.035 0.103l-0.009 0c-0.005,0 -0.008,-0.004 -0.008,-0.008l0 -0.095 -0.035 0c-0.002,0.018 -0.01,0.034 -0.022,0.046 -0.013,0.013 -0.03,0.021 -0.049,0.023l-0.013 0.408 0.084 0.001 0.052 -0.322 0 -0.053zm0 -0.103l0 0.086 0.017 0 0 -0.086 -0.017 0zm0.138 0l-0.051 0c0.002,0.013 0.008,0.025 0.017,0.034 0.009,0.009 0.022,0.015 0.036,0.017l-0.002 -0.051zm-0.208 0l-0.051 0 -0.002 0.051c0.014,-0.002 0.027,-0.008 0.036,-0.017 0.009,-0.009 0.015,-0.021 0.017,-0.034zm0.208 -0.034l-0.258 0 0 0.016 0.111 0 0.035 0 0.112 0 0 -0.016z">
        </path>
    </g>
</g>
</svg>