<svg height="100%"
     width="100%"
     viewBox="0 0 66 56"
     xmlns="http://www.w3.org/2000/svg"
     preserveAspectRatio="xMidYMid meet"
     focusable="false"
     fill="#ffffff">
    <path style="stroke:none"
          d="M470,86.4142136 L470,120 C470,120.552285 469.552285,121 469,121 L435,121 C434.447715,121 434,120.552285 434,120 L434,86.4142136 L430.707107,89.7071068 C430.316582,90.0976311 429.683418,90.0976311 429.292893,89.7071068 L419.292893,79.7071068 C418.902369,79.3165825 418.902369,78.6834175 419.292893,78.2928932 L429.464073,68.1217132 C431.211407,66.3743799 434.524946,65 436.994844,65 L467.005156,65 C469.481244,65 472.784572,66.370358 474.535927,68.1217132 L484.707107,78.2928932 C485.097631,78.6834175 485.097631,79.3165825 484.707107,79.7071068 L474.707107,89.7071068 C474.316582,90.0976311 473.683418,90.0976311 473.292893,89.7071068 L470,86.4142136 Z M439.540065,67 L436.994844,67 C435.055725,67 432.250792,68.1634219 430.878287,69.5359268 L421.414214,79 L430,87.5857864 L434.292893,83.2928932 C434.922858,82.6629284 436,83.1090951 436,84 L436,119 L468,119 L468,84 C468,83.1090951 469.077142,82.6629284 469.707107,83.2928932 L474,87.5857864 L482.585786,79 L473.121713,69.5359268 C471.745158,68.159372 468.950425,67 467.005156,67 L464.459935,67 L452.759257,80.6507914 C452.360161,81.1164029 451.639839,81.1164029 451.240743,80.6507914 L439.540065,67 Z M442.174221,67 L452,78.4634093 L461.825779,67 L442.174221,67 Z M455,87.9970301 C455,86.8953556 455.899481,86 456.99703,86 L463.00297,86 C464.104644,86 465,86.899481 465,87.9970301 L465,94.0029699 C465,94.8697298 464.495746,95.8781905 463.800154,96.3998845 L461.399846,98.2001155 C460.601794,98.7986544 459.399833,98.7998744 458.600154,98.2001155 L456.199846,96.3998845 C455.507997,95.8809978 455,94.86385 455,94.0029699 L455,87.9970301 Z M457,94.0029699 C457,94.2346713 457.211878,94.6589085 457.399846,94.7998845 L459.800154,96.6001155 C459.888059,96.6660441 460.112245,96.6658166 460.199846,96.6001155 L462.600154,94.7998845 C462.792145,94.6558909 463,94.2402013 463,94.0029699 L463,87.9970301 C463.000294,87.9991572 460.999304,88.0001471 456.99703,88 C456.999157,87.9997058 457.000147,90.0006958 457,94.0029699 Z"
          fill-rule="evenodd"
          transform="translate(-419 -65)">
    </path>
</svg>