<svg viewBox="0 0 66 66"
     xmlns="http://www.w3.org/2000/svg"
     height="100%"
     width="100%"
     preserveAspectRatio="xMidYMid meet"
     focusable="false"
     fill="#ffffff">
    <g id="Outline">
        <g>
            <path style="stroke:none;" d="M41,60H17V56.816A2.966,2.966,0,0,0,18,57h4a3,3,0,0,0,3-3V48a1,1,0,0,0-1-1H17V17a1,1,0,0,0-2,0V50H9V22a1,1,0,0,0-2,0V51a1,1,0,0,0,1,1h7v9a1,1,0,0,0,1,1H41a1,1,0,0,0,0-2ZM23,49v5a1,1,0,0,1-1,1H18a1,1,0,0,1-1-1V49Z">
            </path>
            <path style="stroke:none;" d="M44,2H41a1.651,1.651,0,0,0-.181.017,1,1,0,0,0-.771.677L32,27.732,24.372,4H37a1,1,0,0,0,0-2H20A13.015,13.015,0,0,0,7,15v3a1,1,0,0,0,2,0V15A11.013,11.013,0,0,1,20,4h.92l-2.7,3.375a1,1,0,0,0-.076,1.14l2.8,4.668L20.02,17.8a1,1,0,0,0,.217.842L31,31.366V56a1,1,0,0,0,2,0V31.366l10.764-12.72a1,1,0,0,0,.216-.842l-.923-4.621,2.8-4.668a1,1,0,0,0-.076-1.14L43.081,4H44A11.013,11.013,0,0,1,55,15V50H52a1,1,0,0,0,0,2h4a1,1,0,0,0,1-1V15A13.015,13.015,0,0,0,44,2ZM22.075,17.723,22.98,13.2a1,1,0,0,0-.123-.711l-2.642-4.4,2.4-3L29.5,26.5Zm19.068-5.238a1,1,0,0,0-.123.711l.9,4.527L34.5,26.5,41.382,5.079l2.4,3Z">
            </path>
            <path style="stroke:none;" d="M48,16a1,1,0,0,0-1,1V47H40a1,1,0,0,0-1,1v6a3,3,0,0,0,3,3h4a2.966,2.966,0,0,0,1-.184V60H45a1,1,0,0,0,0,2h3a1,1,0,0,0,1-1V17A1,1,0,0,0,48,16ZM46,55H42a1,1,0,0,1-1-1V49h6v5A1,1,0,0,1,46,55Z">
            </path>
            <circle style="stroke:none;" cx="36" cy="33" r="1">
            </circle>
            <circle style="stroke:none;" cx="36" cy="38" r="1">
            </circle>
            <circle style="stroke:none;" cx="36" cy="43" r="1">
            </circle>
        </g>
    </g>
</svg>