<svg height="100%"
     viewBox="0 0 66 56"
     width="100%"
     xmlns="http://www.w3.org/2000/svg"
     preserveAspectRatio="xMidYMid meet"
     focusable="false"
     fill="#ffffff">
    <path style="stroke:none;" d="M12.91211,44a42.68713,42.68713,0,0,1-6.70654-.37842C2,42.89941,2,38.49219,2,36.37451a13.33787,13.33787,0,0,1,1.1958-5.46436,1.00594,1.00594,0,0,1,.91064-.52344c5.78564.18018,10.2915.03076,13.50244-1.292a1.00016,1.00016,0,0,1,.76172,1.84961c-3.4082,1.40283-7.93311,1.61621-13.65967,1.46094a13.00206,13.00206,0,0,0-.71143,4.001c.00049,3.541.6665,4.92188,2.54492,5.24463a65.95723,65.95723,0,0,0,10.14307.31592c1.335-.01709,2.70264-.03467,4.07178-.03613.0752-.06543.18164-.17334.2583-.25146a2.09223,2.09223,0,0,1,1.65674-.84668l1.86768.17285c10.373.96875,24.58105,2.29346,30.31445-2.32275.666-.645,1.4165-5.69629-.25049-8.9082a3.80535,3.80535,0,0,0-4.543-2.13086c-8.585,1.64111-14.77344-2.25488-19.69629-6.2832a1.12051,1.12051,0,0,0-.58252-.30322c-.37744.04736-1.11328,1.0459-1.76318,1.92676a25.76138,25.76138,0,0,1-4.14062,4.63672,1.00014,1.00014,0,0,1-1.29395-1.52539,23.7087,23.7087,0,0,0,3.8252-4.29834c1.1001-1.4917,1.895-2.56982,3.12354-2.72412a2.72691,2.72691,0,0,1,2.09814.73975c4.79492,3.92285,10.30225,7.3501,18.05371,5.86621a5.8335,5.8335,0,0,1,6.86426,3.522c1.70508,3.68359,1.19238,9.72461-.44043,11.03955-6.36572,5.126-21.03955,3.75684-31.75488,2.75635l-1.668-.1543c-.07471.06641-.17236.166-.24463.23926a2.21164,2.21164,0,0,1-1.52295.84912c-1.41406,0-2.82861.01807-4.207.03613C15.41211,43.9834,14.13379,44,12.91211,44Z">
    </path>
    <path style="stroke:none;" d="M38.94727,38.30322c-4.03662,0-8.51465-.31641-13.4834-.66748-6.499-.45947-13.86523-.98-22.33936-.98a1,1,0,1,1,0-2c8.54492,0,15.94824.52344,22.48047.98486,14.05811.99365,23.34863,1.65039,29.999-3.73926a.99982.99982,0,1,1,1.25879,1.55371C52.1748,37.25391,46.29395,38.30322,38.94727,38.30322Z">
    </path>
    <path style="stroke:none;" d="M24.21631,33.94092a3.41507,3.41507,0,0,1-1.73437-.47266h0L6.68262,24.18018a1.00057,1.00057,0,0,1-.48682-.751A5.48162,5.48162,0,0,1,9.29932,18.187a1.00016,1.00016,0,0,1,.86475.07129l15.79883,9.2876a3.4341,3.4341,0,0,1-1.74658,6.395Zm-.7207-2.19727A1.43456,1.43456,0,1,0,24.94922,29.27L9.63232,20.26611a3.87357,3.87357,0,0,0-1.44727,2.47705Z">
    </path>
    <path style="stroke:none;" d="M39,30.21a1.05235,1.05235,0,0,1-.71-.29.93819.93819,0,0,1-.21045-.33008A.999.999,0,0,1,38,29.21a1,1,0,1,1,2,0,.99953.99953,0,0,1-.08008.37988.944.944,0,0,1-.21.33008A1.05329,1.05329,0,0,1,39,30.21Z">
    </path>
    <path style="stroke:none;" d="M43,31.21a.83864.83864,0,0,1-.38037-.08008,1.16214,1.16214,0,0,1-.32959-.21.93819.93819,0,0,1-.21045-.33008.94755.94755,0,0,1,0-.76025A1.15319,1.15319,0,0,1,42.29,29.5a1.14112,1.14112,0,0,1,.32959-.21A1.002,1.002,0,0,1,43.71,29.5a1.16214,1.16214,0,0,1,.21.32959.94226.94226,0,0,1,0,.76025.944.944,0,0,1-.21.33008A1.05329,1.05329,0,0,1,43,31.21Z">
    </path>
    <path style="stroke:none;" d="M47,31.21a1.03393,1.03393,0,0,1-.71-.29.93819.93819,0,0,1-.21045-.33008.94755.94755,0,0,1,0-.76025A1.15319,1.15319,0,0,1,46.29,29.5a1.04667,1.04667,0,0,1,1.41992,0,1.16214,1.16214,0,0,1,.21.32959.94226.94226,0,0,1,0,.76025.944.944,0,0,1-.21.33008A1.05329,1.05329,0,0,1,47,31.21Z">
    </path>
    <path style="stroke:none;" d="M51,30.21a.83864.83864,0,0,1-.38037-.08008,1.16214,1.16214,0,0,1-.32959-.21.93819.93819,0,0,1-.21045-.33008A.999.999,0,0,1,50,29.21a1.05006,1.05006,0,0,1,.29-.71,1.14112,1.14112,0,0,1,.32959-.21A1.03672,1.03672,0,0,1,51.71,28.5a1.05235,1.05235,0,0,1,.29.71.99953.99953,0,0,1-.08008.37988.944.944,0,0,1-.21.33008A1.05329,1.05329,0,0,1,51,30.21Z">
    </path>
    <path style="stroke:none;" d="M40,33.21a.83864.83864,0,0,1-.38037-.08008,1.16214,1.16214,0,0,1-.32959-.21,1.03173,1.03173,0,0,1-.29-.71,1.05006,1.05006,0,0,1,.29-.71,1.14112,1.14112,0,0,1,.32959-.21.95584.95584,0,0,1,.58008-.06006.62125.62125,0,0,1,.18018.06006.75671.75671,0,0,1,.18018.08984c.0498.04.09961.08008.1499.12012a1.05235,1.05235,0,0,1,.29.71,1.03393,1.03393,0,0,1-.29.71A1.05329,1.05329,0,0,1,40,33.21Z">
    </path>
    <path style="stroke:none;" d="M22.66553,29.46143a1,1,0,0,1-.85645-1.51465l.5-.8335a1,1,0,1,1,1.71484,1.0293l-.5.8335A.99894.99894,0,0,1,22.66553,29.46143Z">
    </path>
    <path style="stroke:none;" d="M28.917,29.12793a1,1,0,0,1-.65918-1.75244,24.83256,24.83256,0,0,0,3.86816-5.2334,1,1,0,0,1,1.748.97168,26.33157,26.33157,0,0,1-4.29883,5.7666A.99742.99742,0,0,1,28.917,29.12793Z">
    </path>
    <path style="stroke:none;" d="M12.26611,36.7998a1.0001,1.0001,0,0,1-.03662-1.99951c5.36523-.19922,7.51855-1.60059,7.53955-1.61475a1.00017,1.00017,0,0,1,1.13721,1.64551c-.10156.0708-2.561,1.74316-8.60254,1.96826Z">
    </path>
</svg>